<?xml version="1.0" encoding="UTF-8"?>
<!DOCTYPE svg PUBLIC "-//W3C//DTD SVG 1.1//EN" "http://www.w3.org/Graphics/SVG/1.1/DTD/svg11.dtd">
<!-- Creator: CorelDRAW -->
<svg xmlns="http://www.w3.org/2000/svg" xml:space="preserve" width="254.203mm" height="359.128mm" version="1.1" style="shape-rendering:geometricPrecision; text-rendering:geometricPrecision; image-rendering:optimizeQuality; fill-rule:evenodd; clip-rule:evenodd"
viewBox="0 0 25420.3 35912.8"
 xmlns:xlink="http://www.w3.org/1999/xlink"
 xmlns:xodm="http://www.corel.com/coreldraw/odm/2003">
 <defs>
  <style type="text/css">
   <![CDATA[
    .fil0 {fill:#EA2990}
   ]]>
  </style>
 </defs>
 <g id="Capa_x0020_1">
  <metadata id="CorelCorpID_0Corel-Layer"/>
  <g id="_2223311477008">
   <path class="fil0" d="M1757.09 14747.52c0,801.82 211.67,908.37 211.67,1375.83 0,603.8 -399.28,1201.02 119.43,1856.12 90.65,114.5 400.4,331.33 550.85,366.38l0 70.55c-304.26,0 -680.21,224.81 -867.7,367.03 -611.05,463.54 -437.58,570.62 -437.58,726.59 0,227.02 -162.98,320.18 -211.67,529.16 105.96,121.9 211.67,153.32 211.67,282.22 0,192.61 -126.96,289.86 -156.69,444.35 -32.54,169.05 150.81,252.91 227.24,367.04 -83.57,157.95 -131.85,194.89 -283.17,281.28 -439.69,251.01 -1127.94,287.18 -1127.94,671.22 0,472.55 447.29,285.98 656.46,127.29 215.91,-163.81 390.54,-515.34 684.1,-515.34 280.58,0 330.68,265.51 423.33,458.61 122.12,0 301.25,-11.78 415.68,7.66 425.65,72.31 204.84,257.03 685.45,-141.26 581.23,-481.67 145.42,311.69 1509.12,-1454.21l600.03 -599.41c-24.68,296.58 -388.06,807.25 -388.06,1199.44 0,375.44 366.46,-201.84 447.29,-364.1 165.66,-332.57 228.19,-613.24 399.38,-658.95 -10.95,131.58 -32.84,391.46 -55.68,544.03 -29.36,196.03 -4.22,386.11 -14.69,585.04 -24.33,462.56 -141.3,617.05 -141.3,1269.81 0,283.97 116.83,295.58 202.68,467.61 89.71,179.77 5.18,362.21 114.82,590.73 191.79,0 317.86,-35.31 435,58.89 104.04,83.67 165.61,189.85 235.28,293.88 223.16,-26.49 555.14,-124.59 681.73,235.5 60.26,171.41 52.39,387.42 83.81,551.19 130.8,681.96 575.02,550.85 575.02,165.81 0,-360.51 -893.59,-1138.19 -273.48,-1296.53 202.55,-51.72 224.61,-8.69 272.26,-221.62 106.47,-475.68 134.56,-286.41 565.66,-386.85 38.29,-164.35 22.58,-328.59 114.72,-449.72 232.52,-305.66 273.34,-58.28 273.34,-573.33 0,-972.54 -362.59,-1113.06 -423.34,-1340.56 551.01,291.56 1127.52,121.76 1506.71,-327.73 444.17,-526.5 252.46,-597.36 1011.92,-1104.75 489.2,-326.84 1757.06,-1066.3 503.9,-1695.87 -1144.62,-575.04 -2923.11,17.51 -3973.86,624.8l-1235.89 845.5c0,-738.18 -513.38,-124.32 -564.44,-105.83 93.01,-399.23 -93.03,-1350.37 -198.71,-1706.3 -317.82,-1070.52 -1056.53,-2318.37 -2016.08,-2922.8 -662.8,-417.51 -1348.27,-300.73 -1348.27,501.6z"/>
   <path class="fil0" d="M9553.48 11748.91c-526.15,0 -639.6,94.28 -908.82,361.18 -446.85,443 -467.39,1212.81 -143.91,1714.6 394.4,611.79 1250.53,252.55 2111.06,252.55 -59.56,88.94 -153.98,217.66 -238.41,290.76 -108.18,93.66 -205.35,130.57 -220.2,308.96 240.59,0 214.14,-28.88 367.95,-125.95 252.38,-159.28 379.68,-278.52 275.49,-11.95 -182.53,467.01 -537.61,920.72 -537.61,1443.18 0,458.53 756.92,776.11 1411.12,776.11 543.58,0 1117.38,-295 1128.88,-811.39 261.66,60.96 240.48,141.11 635,141.11 559.66,0 1283.93,-397.77 1732.71,-560.34l867.1 -297.08c574.11,-266.06 709.89,-680.04 289.82,-1114.98 -5.04,-5.22 -12.34,-12.69 -17.48,-17.8 -165.28,-164.72 -299.39,-238.63 -493.48,-353.19 -125.73,-74.21 -204.18,-122.37 -347.17,-182 -808.55,-337.2 -1769.05,-486.87 -2666.6,-261.66 -254.43,63.84 -470.08,156.94 -705.45,211.77 119.28,-225.43 126.17,-352.77 -176.39,-352.77 94.75,-406.72 635,-710.26 635,-2645.84 0,-1452.38 -759.51,-2908.02 -1728.98,-1446.75l-558.99 816.84c-203.8,271.66 -394.58,509.03 -571.62,804.21 -184.99,308.44 -323.65,675.63 -139.02,1060.43z"/>
   <path class="fil0" d="M15585.98 6175.02c0,1056.83 58.81,588.94 176.39,1093.61 -341.63,-28.43 -1270,-288.57 -1270,458.61 0,722.61 153.86,1065.93 865.54,1180.57 189.97,30.59 734.34,23.61 859.86,62.87 193.23,60.44 -107.62,154.75 -238.25,319.49 -29.14,36.75 -20.44,14.14 -38.22,59.03 -138.25,349.22 501.99,-124.3 561.9,-140.29 -136.42,585.55 -686.18,1185.9 -274.32,1614.87 98.63,102.74 122.73,135.06 214.17,244.44 840.18,1005.11 1435.98,-122.43 1435.98,-624.59 103.5,69.3 149.87,139.58 266.55,227.34 810.1,609.29 1478.13,589.96 2299.05,-25.36 189.09,-141.74 240.53,-206.98 501.65,-274.46 273.35,-70.64 464.78,24.5 707.48,-103.91 -52.44,-630.12 -883.97,-1309.41 -1528.26,-1611.47 -158.27,-74.19 -628.9,-222.98 -835.36,-222.98 58.34,-218.45 105.84,-1.4 105.84,-317.5 0,-185.29 -304.02,-282.22 -493.89,-282.22 -111.94,0 -276.13,43.64 -362.2,61.13 -552.8,112.36 -663.84,244.28 -475.09,-545.64 190.17,-795.9 350.75,-1558.83 6.28,-2353.37 -106.84,-246.44 -578.99,-972.12 -756.49,-972.12 -187.73,0 -127.56,256.94 -344.81,607.7 -241.86,390.5 -1383.8,709.41 -1383.8,1544.25z"/>
   <path class="fil0" d="M11423.2 4481.68l10.53 10.52c-0.7,-0.69 -14.04,-7.01 -10.53,-10.52zm-2575.28 -4021.66c0,649.4 -3.73,2154.99 502.92,2566.25 129.68,105.27 419.9,203.54 625.97,220.69 -122.15,166.72 -564.44,131.72 -564.44,670.28 0,675.01 65.56,1658.05 917.22,1658.05 110.13,0 299.77,-98.33 374.75,-154.41 79.32,-59.34 202.61,-185.49 269.11,-260.06 87.59,-98.2 136.08,-198.92 217.93,-311.24 55.93,-76.75 49.05,-61.47 100.99,-145.95 67.44,-109.7 24.34,-80.08 130.83,-151.39 -9.57,429.81 -348.45,908.45 -141.11,1340.55 233.45,0 232.39,-73.79 346.17,-535.77 56.68,-230.13 112.44,-532.4 112.44,-804.78 141.87,103.94 43.35,308.57 282.35,846.54 247.51,557.15 451.96,564.57 846.54,564.57 410.85,0 1093.61,-939.14 1093.61,-1516.94 0,-145.81 -152.03,-345.91 -211.67,-458.61 308.9,0 753.27,92.92 1059.56,-316.28 256.08,-342.12 1394.69,-1849.81 1389.98,-2219.77 -3.75,-294.78 -288.34,-321.45 -509.26,-321.45 -928.23,0 -2155.73,775.48 -2794.8,1332.69 -156.82,136.74 -650.04,534.94 -697.7,713.42l-70.55 0c-44.89,-539.39 -529.13,-35.31 -529.17,-35.28 -54.85,-659.12 -693.08,-1717.64 -1139.26,-2247.4l-336.44 -369.12c-280.56,-232.79 -577.49,-523.2 -958.47,-523.2 -221.09,0 -317.5,240.57 -317.5,458.61z"/>
   <path class="fil0" d="M4367.65 4622.79c-133.3,-35.59 -102.61,-68.08 -211.67,-141.11 -128.89,86.32 -67.37,96.52 -176.39,176.39 -481.74,-719.41 -1317.8,-1055.08 -2154.01,-1232.66 -199.62,-42.39 -915.15,-159.83 -915.15,103.77 0,273.55 182.29,132.18 176.88,705.06 -7.13,755.37 222.45,1588 1128.39,1588 -43.36,162.4 -141.11,158.44 -141.11,317.5 0,315.43 341.71,764.62 537.21,944.46 81.06,74.58 206.58,167.48 301.75,227.42 206.07,129.78 1372.44,603.11 1489.37,486.17 54.18,-54.17 0,-251.52 0,-423.33 0,-207.33 135.29,-596.43 168.38,-927.54 14.77,-147.87 -27.26,-190.6 -27.26,-342.46 128.46,86.02 126.61,178.02 282.22,282.22 70.12,-132.51 70.55,-115.82 70.55,-317.5l115.26 166.97c50.01,57.8 93.77,83.16 158.76,123.47 124.95,77.49 250.63,115.77 392.01,172.43 598.88,240 370.01,524.91 639.25,524.91 103.45,0 236.69,-257.75 289.37,-345.63 84.35,-140.73 142.72,-264.54 216.75,-418.25 243.53,-505.67 540.48,-1904.92 -118.06,-2058.34l0 -70.56c331.72,-88.57 263.97,-813.96 127.35,-1150.4 -44.51,-109.61 -80.15,-155.05 -137.62,-250.44 -128.44,-213.2 -437.46,-486.86 -560.36,-639.09 -146.44,-181.38 -140.77,-385.86 -311.32,-500.07 -252.99,58.94 -433.42,321.82 -588.96,504.65 -337.97,397.28 -623.81,913.88 -731.43,1455.79 -45.27,227.94 -126.23,817.13 -20.16,1038.17z"/>
   <path class="fil0" d="M3062.37 27341.68c65.79,54.04 32.82,0.1 -21.78,260.44 -92.41,440.58 -358.25,1011.97 131.74,1428.76 430.31,366.02 1724.48,300.01 1724.48,-560.31 0,-222.42 -123.13,-348.35 -141.11,-564.44 733.07,490.89 991.6,180.5 1740.57,-199.71 180.92,-91.85 267.06,-170.3 421.66,-283.9 247.06,-181.54 307.22,-270.74 307.22,-539.45 0,-541.63 -1226.73,-825.46 -1687.72,-771.43 -146.63,17.19 -397.51,35.87 -540.34,60.32 -368.7,63.12 -640.39,130.45 -977.49,257.23 -135.43,50.94 -313.55,176.36 -428.06,206.94 52.17,-108.73 35.27,-129.37 35.27,-282.23 -162.31,-108.69 -290.52,-163.05 -423.33,35.28 -81.03,-57.88 35.28,-84.28 35.28,-493.89 0,-850.46 -396.65,-2031.71 -1143.43,-2525.46 -346.03,-228.78 -761.12,-228.28 -997.68,243.25 -141.31,281.67 -118.05,540.36 -116.56,941.76 3.83,1031.65 -210.65,861.46 552.28,1317.23 70.82,42.31 36.08,18.05 82.61,58.5l-667.08 144.31c-704.93,279.18 -162.06,1760.69 631.8,1760.69 355.02,0 415.86,-37.52 700.91,-251.59 92.75,-69.66 126.92,-107.46 211.26,-176.8 77.14,-63.42 156.86,-145.93 252,-171.33l-235.36 434.92c-45.53,84.41 -83.31,158.51 -119.14,236.14 -57.13,123.75 -59.47,123.81 -33.56,246.16 214.05,0 274.35,-60.53 425.53,-315.3 48.94,-82.47 97.74,-142.61 150.48,-237.58 52.06,-93.75 84.04,-172.51 129.55,-258.51z"/>
   <path class="fil0" d="M5567.09 10796.41l-70.55 0c-55.38,-207.4 -342.43,-180.1 -404.97,-15.76 -52.95,139.11 39.09,197.64 -78.21,203.81 -29.97,1.58 -292.71,-209.1 -343.75,-243.07 -710.51,-472.85 -1835.59,-932.76 -2771.41,-932.76 -576.63,0 -919.34,182.92 -468.32,609.43 349.9,330.87 562.31,439.25 819.08,874.26 121.17,205.29 307.81,453.08 518.79,574.81 435.6,251.33 424.56,132.54 894.34,93.44 -82.21,155.38 -203.4,296.85 -152.89,502.36 97.4,396.27 763.78,979.31 1175.95,979.31 519.09,0 811.39,-632.28 811.39,-1164.17l95.68 221.81c36.02,93.72 62.98,157 100.62,252.17 249.3,630.34 584.04,538.25 337.61,-196.51 -44.72,-133.36 -118.21,-299.9 -145.86,-418.58 124.12,90.94 974.97,1091.02 1559.04,218.49 162.84,-243.26 342.41,-1271.46 -135.47,-1536.23 -48.4,-26.82 -79.72,-36.5 -118.58,-57.81l-44.65 -25.9c-68.48,-43.41 -24.58,-13.38 -60.89,-44.94 950.85,-221.52 664.38,-1073.32 668.83,-1764.86 1.89,-294.33 263.63,-1269.03 -69.11,-1269.03 -427.65,0 -524.41,192.28 -873.2,537.91 -230.3,228.23 -253.39,298.72 -417.74,534.76 -354.45,509.04 -812.29,1463.96 -825.73,2067.06z"/>
   <path class="fil0" d="M20630.7 2259.18c-666.08,-155.17 -1199.44,212.19 -1199.44,776.12 0,1220.58 439.06,757.65 1175.14,870.75 234.32,36 461.62,100.57 659.3,117.02 -33.52,125.54 -14.62,73.66 -103.22,143.72 -35.09,27.75 -104.26,72.76 -144.11,102.84 -51.53,38.91 -86.94,66.39 -138.06,108.88 -64.27,53.42 -82.46,40.94 -108.5,138.45 112.92,168.63 165.65,98.31 329.5,12.57 139.79,-73.16 221.69,-109.21 340.78,-188.96 0,307.46 -143.44,532.83 -246.92,740.86 -230.17,462.75 -608.42,753.65 92.93,1106.46 413.33,207.92 851.29,347.45 1269.67,9.19 150.51,-121.69 260.15,-355.4 260.15,-621.79 712.76,477.29 693.01,105.84 1622.78,105.84 377.05,0 1034.77,326.66 968.15,-264.34 -121.63,-1079.07 -1862.57,-1908.23 -2520.37,-1922.88 12.4,-53.23 184.68,-315.02 -92.27,-400.42 -91.18,-28.11 -151.4,22.22 -260.51,47.64 5.45,-244.56 70.56,-441.23 70.56,-740.83 0,-920.08 8.3,-1275.59 -499.67,-2040.34 -52.15,-78.51 -72.49,-104.86 -154.73,-162.77 -577.51,-406.7 -574.53,222.24 -621.55,397.99 -132.28,494.5 -459.36,688.5 -606.68,945.55 -125.25,218.54 -92.93,402.26 -92.93,718.45z"/>
   <path class="fil0" d="M2533.2 31539.74c0,89.78 119.92,162.62 176.39,246.94 -224.13,52.22 -564.44,287.81 -564.44,493.89 0,258.23 733.71,247.8 952.5,352.78l-35.28 282.22c204.92,0 207.18,-10.33 211.67,-211.67 120.77,88.49 47.37,211.4 211.49,564.62 395.09,850.34 817.45,197.13 705.73,-282.4 488.79,327.31 359.57,321.78 1029.37,-134.79 122.09,-83.23 191.94,-124.98 334.65,-194.52 171.06,-83.36 294.03,-101.75 294.03,-270.41 0,-243.01 -560.38,-423.33 -881.94,-423.33 -499.58,0 -774.56,22.12 -1199.45,246.94 0,-244.19 229.75,-964.12 -119.7,-1538.35 -133.32,-219.08 -263.85,-437.2 -550.57,-437.2 -191.56,0 -69.5,268.16 -288.03,629.2 -103.46,170.93 -276.42,418.57 -276.42,676.08z"/>
   <path class="fil0" d="M5461.26 35243.9c0,153.86 15.92,203.65 70.55,317.5 -273.86,-63.8 -388.05,-88.37 -388.05,211.67 498.19,116.06 -44.79,141.14 917.22,141.11l8.29 0 602.41 0c206.11,-15.57 116.08,-90.26 306.52,-141.11 -3.93,-176.62 -31.59,-173.61 -141.11,-246.95 225.33,-425.84 -160.82,-629.46 -277.11,-957.61 -89.96,-253.84 -94.01,-310.9 -357.89,-171.27 -471.46,-704.07 -740.83,580.18 -740.83,846.66z"/>
  </g>
 </g>
</svg>
